<svg width="28" height="29" viewBox="0 0 28 29" fill="none" xmlns="http://www.w3.org/2000/svg">
<circle cx="14" cy="11" r="11" fill="#D9D9D9"/>
<g filter="url(#filter0_d_44_12)">
<path fill-rule="evenodd" clip-rule="evenodd" d="M14 1C19.5191 1 24 5.48086 24 11C24 16.5191 19.5191 21 14 21C8.48086 21 4 16.5191 4 11C4 5.48086 8.48086 1 14 1ZM14 4.75C12.3026 4.75 12.0898 4.75719 11.4231 4.78762C10.7579 4.81797 10.3036 4.92363 9.90598 5.07813C9.495 5.23785 9.14645 5.45156 8.79898 5.79902C8.45152 6.14648 8.23781 6.49504 8.07809 6.90602C7.92359 7.30355 7.81797 7.75789 7.78758 8.42312C7.75719 9.0898 7.75 9.3026 7.75 11C7.75 12.6974 7.75719 12.9102 7.78758 13.5769C7.81797 14.2421 7.92359 14.6964 8.07809 15.094C8.23781 15.505 8.45152 15.8535 8.79898 16.201C9.14645 16.5485 9.495 16.7622 9.90598 16.9219C10.3036 17.0764 10.7579 17.182 11.4231 17.2124C12.0898 17.2428 12.3026 17.25 14 17.25C15.6974 17.25 15.9102 17.2428 16.5769 17.2124C17.2421 17.182 17.6964 17.0764 18.094 16.9219C18.505 16.7622 18.8535 16.5485 19.201 16.201C19.5485 15.8535 19.7622 15.505 19.9219 15.094C20.0764 14.6964 20.182 14.2421 20.2124 13.5769C20.2428 12.9102 20.25 12.6974 20.25 11C20.25 9.3026 20.2428 9.0898 20.2124 8.42312C20.182 7.75789 20.0764 7.30355 19.9219 6.90602C19.7622 6.49504 19.5485 6.14648 19.201 5.79902C18.8535 5.45156 18.505 5.23785 18.094 5.07813C17.6964 4.92363 17.2421 4.81797 16.5769 4.78762C15.9102 4.75719 15.6974 4.75 14 4.75ZM14 5.87613C15.6688 5.87613 15.8665 5.8825 16.5255 5.91258C17.1349 5.94039 17.4658 6.04219 17.6861 6.12777C17.9778 6.24113 18.186 6.3766 18.4047 6.59531C18.6234 6.81398 18.7589 7.02223 18.8722 7.31395C18.9578 7.53418 19.0596 7.86508 19.0874 8.47445C19.1175 9.1335 19.1239 9.3312 19.1239 11C19.1239 12.6688 19.1175 12.8665 19.0874 13.5255C19.0596 14.1349 18.9578 14.4658 18.8722 14.6861C18.7589 14.9778 18.6234 15.186 18.4047 15.4047C18.186 15.6234 17.9778 15.7589 17.6861 15.8722C17.4658 15.9578 17.1349 16.0596 16.5255 16.0874C15.8666 16.1175 15.6689 16.1239 14 16.1239C12.3311 16.1239 12.1334 16.1175 11.4745 16.0874C10.8651 16.0596 10.5342 15.9578 10.3139 15.8722C10.0222 15.7589 9.81398 15.6234 9.59527 15.4047C9.37656 15.186 9.24113 14.9778 9.12777 14.6861C9.04219 14.4658 8.94035 14.1349 8.91254 13.5255C8.88246 12.8665 8.87613 12.6688 8.87613 11C8.87613 9.3312 8.88246 9.1335 8.91254 8.47445C8.94035 7.86508 9.04219 7.53418 9.12777 7.31395C9.24113 7.02223 9.37656 6.81398 9.59527 6.59531C9.81398 6.3766 10.0222 6.24113 10.3139 6.12777C10.5342 6.04219 10.8651 5.94039 11.4745 5.91258C12.1335 5.8825 12.3312 5.87613 14 5.87613ZM14 7.79055C12.2275 7.79055 10.7906 9.2275 10.7906 11C10.7906 12.7725 12.2275 14.2095 14 14.2095C15.7725 14.2095 17.2095 12.7725 17.2095 11C17.2095 9.2275 15.7725 7.79055 14 7.79055ZM14 13.0833C12.8494 13.0833 11.9167 12.1506 11.9167 11C11.9167 9.8494 12.8494 8.91668 14 8.91668C15.1506 8.91668 16.0833 9.8494 16.0833 11C16.0833 12.1506 15.1506 13.0833 14 13.0833ZM18.0863 7.66375C18.0863 8.07797 17.7505 8.41371 17.3362 8.41371C16.9221 8.41371 16.5863 8.07797 16.5863 7.66375C16.5863 7.24953 16.9221 6.91375 17.3362 6.91375C17.7505 6.91375 18.0863 7.24953 18.0863 7.66375Z" fill="#000A19"/>
</g>
<defs>
<filter id="filter0_d_44_12" x="0" y="1" width="28" height="28" filterUnits="userSpaceOnUse" color-interpolation-filters="sRGB">
<feFlood flood-opacity="0" result="BackgroundImageFix"/>
<feColorMatrix in="SourceAlpha" type="matrix" values="0 0 0 0 0 0 0 0 0 0 0 0 0 0 0 0 0 0 127 0" result="hardAlpha"/>
<feOffset dy="4"/>
<feGaussianBlur stdDeviation="2"/>
<feComposite in2="hardAlpha" operator="out"/>
<feColorMatrix type="matrix" values="0 0 0 0 0 0 0 0 0 0 0 0 0 0 0 0 0 0 0.25 0"/>
<feBlend mode="normal" in2="BackgroundImageFix" result="effect1_dropShadow_44_12"/>
<feBlend mode="normal" in="SourceGraphic" in2="effect1_dropShadow_44_12" result="shape"/>
</filter>
</defs>
</svg>
